<svg xmlns="http://www.w3.org/2000/svg" width="1024" height="1024" viewBox="0 0 1024 1024">
<g>
<path d="M 864.49 575.00 C861.41,624.78 858.58,666.73 858.20,668.24 L 857.50 670.98 L 855.87 667.24 C854.97,665.18 843.66,640.78 830.74,613.00 C817.82,585.22 785.19,515.03 758.24,457.00 C731.28,398.98 685.49,300.42 656.48,238.00 L 652.03 228.42 C603.76,124.55 600.86,118.31 601.39,118.01 C601.43,117.99 601.47,117.99 601.52,118.00 C601.55,118.00 601.57,118.00 601.60,118.00 C602.14,118.00 641.26,136.05 847.50,231.45 C867.30,240.61 883.82,248.42 884.22,248.82 C884.61,249.21 881.59,302.40 877.51,367.02 C873.42,431.63 867.57,525.22 864.49,575.00 Z" fill="rgb(170,34,241)"/>
<path d="M 160.06 551.54 C159.55,551.22 158.92,552.43 158.67,554.23 C158.41,556.03 158.27,553.79 158.36,549.25 C158.44,544.72 158.25,540.89 157.92,540.75 C157.59,540.61 156.57,528.12 155.65,513.00 C154.74,497.88 150.63,432.41 146.53,367.51 C142.43,302.62 139.39,249.21 139.79,248.82 C140.93,247.68 422.12,117.78 422.53,118.20 C422.98,118.65 420.26,124.58 364.05,245.50 C339.76,297.75 298.22,387.17 271.73,444.20 C245.23,501.24 223.28,547.45 222.94,546.90 C222.53,546.24 221.44,546.30 219.75,547.07 C217.65,548.02 216.75,547.94 214.87,546.62 C213.08,545.37 210.05,545.00 201.53,544.98 C195.46,544.98 189.87,544.57 189.10,544.08 C188.23,543.53 186.18,543.73 183.72,544.60 C181.54,545.37 178.31,546.00 176.55,546.00 C173.76,546.00 173.09,546.54 171.42,550.19 C170.36,552.49 168.94,554.55 168.25,554.77 C167.57,554.99 165.66,553.81 164.00,552.16 C162.03,550.19 161.00,549.66 161.00,550.64 C161.00,551.45 160.58,551.86 160.06,551.54 ZM 614.00 575.66 C614.00,575.85 568.10,576.00 512.00,576.00 C455.90,576.00 410.00,575.66 410.00,575.25 C410.00,574.84 429.69,574.52 453.75,574.54 C485.05,574.57 491.24,574.42 475.50,574.01 C463.40,573.70 454.85,573.25 456.50,573.01 C458.15,572.77 451.85,572.33 442.50,572.04 L 425.50 571.50 L 425.18 568.14 C424.88,565.06 424.63,564.82 422.11,565.33 C419.87,565.78 419.06,565.37 417.74,563.14 C416.15,560.45 416.47,559.57 439.37,503.95 C452.16,472.90 473.58,420.84 486.99,388.25 C500.39,355.66 511.64,329.00 511.99,329.00 C512.33,329.00 517.85,341.71 524.26,357.25 C559.07,441.69 614.00,575.37 614.00,575.66 ZM 693.17 803.60 C685.65,807.86 678.38,812.03 677.00,812.87 C675.62,813.71 674.82,814.03 675.20,813.58 C675.59,813.13 675.26,812.12 674.47,811.33 C673.37,810.22 673.30,809.49 674.18,808.08 C675.09,806.63 674.91,805.68 673.30,803.38 C672.19,801.80 671.04,799.38 670.74,798.00 C669.70,793.19 667.09,786.52 664.48,782.00 C663.68,780.62 663.02,777.41 663.01,774.86 C663.00,771.03 662.57,769.95 660.50,768.59 C659.01,767.62 658.00,766.01 658.00,764.61 C658.00,763.32 656.99,760.98 655.75,759.41 C653.38,756.40 651.15,751.26 650.31,746.87 C650.03,745.42 648.40,742.72 646.68,740.87 C642.59,736.46 639.00,731.23 639.00,729.67 C639.00,726.39 635.03,717.41 633.19,716.55 C631.82,715.91 630.96,714.23 630.54,711.39 C630.19,709.07 629.25,706.93 628.45,706.62 C627.65,706.31 627.00,704.99 627.00,703.68 C627.00,701.71 626.47,701.29 623.90,701.22 C622.19,701.17 620.53,700.87 620.21,700.55 C619.89,700.23 630.37,700.08 643.51,700.23 L 667.38 700.50 L 682.67 737.50 C691.08,757.85 699.96,779.31 702.41,785.18 L 706.85 795.86 Z" fill="rgb(238,41,174)"/>
<path d="M 581.50 867.28 C546.85,887.04 517.13,904.04 515.45,905.06 C512.51,906.85 512.29,906.85 509.45,905.13 C507.83,904.15 491.20,894.64 472.50,884.00 C370.81,826.13 319.41,796.73 318.66,796.02 C318.01,795.40 339.57,741.59 355.23,704.75 L 357.25 699.99 L 512.32 700.25 L 620.67 700.42 C620.33,700.46 620.17,700.50 620.21,700.55 C620.53,700.87 622.19,701.17 623.90,701.22 C626.47,701.29 627.00,701.71 627.00,703.68 C627.00,704.99 627.65,706.31 628.45,706.62 C629.25,706.93 630.19,709.07 630.54,711.39 C630.96,714.23 631.82,715.91 633.19,716.55 C635.03,717.41 639.00,726.39 639.00,729.67 C639.00,731.23 642.59,736.46 646.68,740.87 C648.40,742.72 650.03,745.42 650.31,746.87 C651.15,751.26 653.38,756.40 655.75,759.41 C656.99,760.98 658.00,763.32 658.00,764.61 C658.00,766.01 659.01,767.62 660.50,768.59 C662.57,769.95 663.00,771.03 663.01,774.86 C663.02,777.41 663.68,780.62 664.48,782.00 C667.09,786.52 669.70,793.19 670.74,798.00 C671.04,799.38 672.19,801.80 673.30,803.38 C674.91,805.68 675.09,806.63 674.18,808.08 C673.30,809.49 673.37,810.22 674.47,811.33 C675.26,812.12 675.59,813.13 675.20,813.58 C674.99,813.82 675.14,813.84 675.54,813.67 C658.31,823.48 616.06,847.57 581.50,867.28 ZM 160.06 551.54 C160.58,551.86 161.00,551.45 161.00,550.64 C161.00,549.66 162.03,550.19 164.00,552.16 C165.66,553.81 167.57,554.99 168.25,554.77 C168.94,554.55 170.36,552.49 171.42,550.19 C173.09,546.54 173.76,546.00 176.55,546.00 C178.31,546.00 181.54,545.37 183.72,544.60 C186.18,543.73 188.23,543.53 189.10,544.08 C189.87,544.57 195.46,544.98 201.53,544.98 C210.05,545.00 213.08,545.37 214.87,546.62 C216.75,547.94 217.65,548.02 219.75,547.07 C221.44,546.30 222.53,546.24 222.94,546.90 C223.28,547.45 245.23,501.24 271.73,444.20 C294.59,394.98 328.66,321.65 353.18,268.90 C326.32,326.71 281.03,424.24 244.48,503.00 C202.24,594.03 167.30,668.93 166.84,669.45 C166.34,670.02 166.00,669.82 165.99,668.95 C165.99,668.15 164.33,642.75 162.30,612.50 C160.63,587.53 159.19,563.86 158.72,553.88 C159.00,552.28 159.58,551.24 160.06,551.54 ZM 410.03 575.22 C410.01,575.21 410.00,575.21 410.00,575.20 C410.00,574.76 410.46,573.94 411.02,573.38 C411.59,572.81 413.32,568.79 414.88,564.43 C415.40,562.97 417.76,557.05 421.44,547.95 C416.52,560.56 416.79,561.52 417.74,563.14 C419.06,565.37 419.87,565.78 422.11,565.33 C424.63,564.82 424.88,565.06 425.18,568.14 L 425.50 571.50 L 442.50 572.04 C451.85,572.33 458.15,572.77 456.50,573.01 C454.85,573.25 463.40,573.70 475.50,574.01 C491.24,574.42 485.05,574.57 453.75,574.54 C430.26,574.52 410.94,574.82 410.03,575.22 ZM 440.00 502.44 C444.67,491.03 449.73,478.69 454.96,466.00 C510.47,331.11 511.33,329.02 511.98,329.00 C511.60,329.09 500.37,355.72 486.99,388.25 C473.80,420.31 452.84,471.23 440.00,502.44 ZM 157.92 540.75 C158.06,540.81 158.17,541.53 158.25,542.69 C158.15,541.72 158.03,541.10 157.91,541.00 C157.59,540.72 156.57,528.12 155.65,513.00 C154.73,497.88 150.63,432.41 146.53,367.51 C150.63,432.41 154.74,497.88 155.65,513.00 C156.57,528.12 157.59,540.61 157.92,540.75 ZM 693.17 803.60 L 697.89 800.93 L 679.21 811.57 C682.22,809.83 687.63,806.74 693.17,803.60 ZM 521.05 349.53 C516.11,337.74 512.29,329.04 511.99,329.00 L 512.00 329.00 C512.28,329.00 516.11,337.71 521.05,349.53 Z" fill="rgb(237,8,90)"/>
<path d="M 0.00 512.00 L 0.00 0.00 L 512.00 0.00 L 1024.00 0.00 L 1024.00 512.00 L 1024.00 1024.00 L 512.00 1024.00 L 0.00 1024.00 L 0.00 512.00 ZM 581.50 867.28 C616.15,847.52 658.53,823.36 675.67,813.59 L 706.84 795.83 L 702.40 785.17 C699.96,779.30 691.08,757.85 682.67,737.50 L 667.38 700.50 L 512.32 700.25 L 357.25 699.99 L 355.23 704.75 C339.57,741.59 318.01,795.40 318.66,796.02 C319.41,796.73 370.81,826.13 472.50,884.00 C491.20,894.64 507.83,904.15 509.45,905.13 C512.29,906.85 512.51,906.85 515.45,905.06 C517.13,904.04 546.85,887.04 581.50,867.28 ZM 864.49 575.00 C867.57,525.22 873.42,431.63 877.51,367.02 C881.59,302.40 884.61,249.21 884.22,248.82 C883.82,248.42 867.30,240.61 847.50,231.45 C641.26,136.05 602.14,118.00 601.60,118.00 C600.69,118.00 599.15,114.64 656.48,238.00 C685.49,300.42 731.28,398.98 758.24,457.00 C785.19,515.03 817.82,585.22 830.74,613.00 C843.66,640.78 854.97,665.18 855.87,667.24 L 857.50 670.98 L 858.20 668.24 C858.58,666.73 861.41,624.78 864.49,575.00 ZM 244.48 503.00 C286.72,411.98 340.63,295.88 364.28,245.00 C420.59,123.85 422.98,118.65 422.54,118.20 C422.12,117.78 140.93,247.67 139.79,248.82 C139.39,249.21 142.43,302.62 146.53,367.51 C150.63,432.41 154.73,497.88 155.65,513.00 C156.57,528.12 157.59,540.72 157.91,541.00 C158.23,541.28 158.53,545.10 158.56,549.50 C158.59,553.90 160.28,582.25 162.30,612.50 C164.33,642.75 165.99,668.15 165.99,668.95 C166.00,669.82 166.34,670.02 166.84,669.45 C167.30,668.93 202.24,594.03 244.48,503.00 ZM 614.00 575.66 C614.00,575.37 559.07,441.69 524.26,357.25 C517.85,341.71 512.33,329.00 512.00,329.00 C511.34,329.00 510.89,330.08 454.96,466.00 C434.47,515.78 416.44,560.07 414.88,564.43 C413.32,568.79 411.59,572.81 411.02,573.38 C410.46,573.94 410.00,574.76 410.00,575.20 C410.00,575.64 455.90,576.00 512.00,576.00 C568.10,576.00 614.00,575.85 614.00,575.66 Z" fill="rgb(254,254,254)"/>
</g>
</svg>